<?xml version="1.0" encoding="UTF-8"?>
<svg version="1.1" xmlns="http://www.w3.org/2000/svg" width="240" height="240">
<path d="M0 0 C2.79693155 1.36260768 4.61933682 2.37190575 6.25 5.0625 C10.73744556 10.03074329 20.82216367 9.54020963 27.11328125 9.921875 C33.55993207 10.11718578 39.99802609 9.71801126 46.4375 9.4375 C65.56256104 8.67521222 81.16149707 9.31752918 96.4375 22.3125 C108.15429495 33.68355346 112.88570665 47.29461106 116.625 62.875 C117.1940587 65.22813464 117.7693749 67.57976665 118.3515625 69.9296875 C118.59729004 70.95304199 118.84301758 71.97639648 119.09619141 73.03076172 C120.07993005 76.2625903 121.33393335 79.06286935 123 82 C125.94875877 83.47437939 127.69179497 83.36089509 131 83 C133.34528622 81.78193761 135.54621277 80.44821299 137.75390625 78.99609375 C140.6052337 77.73159201 142.07383196 78.04441551 145 79 C147.13735343 81.52596314 146.99796847 83.05485129 146.875 86.375 C145.45292565 92.2664509 142.98081075 95.57699365 137.9375 98.8125 C133.13767096 101.65923162 129.33128467 102.18329142 123.75 102.25 C122.46609375 102.27578125 121.1821875 102.3015625 119.859375 102.328125 C115.51329162 101.95861994 112.87554314 100.90765077 109 99 C108.37116466 102.06175652 107.74656168 105.12426464 107.125 108.1875 C106.9386499 109.09773926 106.7522998 110.00797852 106.56030273 110.94580078 C105.52492046 116.08409544 104.68492119 121.17204232 104.0625 126.375 C103.26362196 131.79347711 102.16385574 134.40394277 98 138 C92.72069952 141.86290279 86.31312735 141.89685096 80 141 C77.66796875 139.72265625 77.66796875 139.72265625 76 138 C75.71145639 135.98019476 75.42956933 133.95649978 75.27734375 131.921875 C74.90423169 129.33636604 73.64130108 127.98323881 72 126 C71.3125 123.25 71.3125 123.25 71 121 C70.17230103 121.24339111 70.17230103 121.24339111 69.32788086 121.49169922 C66.73864942 122.0570668 64.40375191 122.12953096 61.75390625 122.1328125 C60.75166016 122.13410156 59.74941406 122.13539063 58.71679688 122.13671875 C57.67587891 122.13285156 56.63496094 122.12898438 55.5625 122.125 C54.00692383 122.13080078 54.00692383 122.13080078 52.41992188 122.13671875 C51.41638672 122.13542969 50.41285156 122.13414062 49.37890625 122.1328125 C48.4669751 122.13168457 47.55504395 122.13055664 46.61547852 122.12939453 C43.98607307 121.999311 41.56390002 121.58261251 39 121 C38.97421875 121.68964844 38.9484375 122.37929687 38.921875 123.08984375 C38.48419564 130.34139504 37.76322524 137.43703508 32.23828125 142.66796875 C27.48424746 146.00233037 23.72810821 146.85921623 18 146 C15.03141843 143.79259319 14.17134209 142.51402627 13 139 C12.89763211 136.81330809 12.81725082 134.62555348 12.75 132.4375 C12.31939177 125.94473522 11.21030279 120.14592563 7 115 C1.44791667 112.1337963 -4.84896141 110.84090255 -11 112 C-15.63699867 115.88505294 -19.28452197 120.56904394 -22 126 C-22.66 126 -23.32 126 -24 126 C-24.3403125 127.0828125 -24.3403125 127.0828125 -24.6875 128.1875 C-26.26335128 131.56432417 -28.20876616 133.55767039 -31 136 C-31.66 136 -32.32 136 -33 136 C-33 136.66 -33 137.32 -33 138 C-38.57866014 142.09101744 -43.05026904 143.78727421 -50 143 C-52.91927604 141.6038245 -54.72202996 140.27797004 -57 138 C-57.4375 135.1875 -57.4375 135.1875 -57 132 C-54.6875 129.375 -54.6875 129.375 -52 127 C-46.06907685 120.62974921 -46.71310715 111.5147509 -46.8125 103.375 C-46.81314453 102.364375 -46.81378906 101.35375 -46.81445312 100.3125 C-46.84333782 95.42135853 -47.05772328 90.81444509 -48 86 C-48.38338091 80.971469 -47.96321123 76.67539873 -46.625 71.8125 C-45.9927237 69.33397194 -45.9927237 69.33397194 -46 67 C-48.35253785 64.14480839 -48.35253785 64.14480839 -50.328125 62.60546875 C-54.88975244 58.22502744 -56.2406556 51.61188297 -56.5 45.5 C-56.33065068 40.53242001 -54.96823107 36.57093869 -52.875 32.09375 C-51.82055271 29.57060827 -51.80301458 27.76872359 -52.48046875 25.125 C-53.69204979 20.16936025 -53.9705696 14.89702239 -51.625 10.3125 C-48.55950091 8.77975046 -47.66532972 9.07143824 -44.375 9.625 C-38.70197504 10.48683123 -35.87329298 8.61848685 -31.24609375 5.5 C-23.40904901 0.26621708 -14.02886301 0.9091798 -5.01171875 1.0625 C-2.07645941 1.21679634 -2.07645941 1.21679634 0 0 Z " fill="#FCFCFC" transform="translate(81,54)"/>
<path d="M0 0 C2.79693155 1.36260768 4.61933682 2.37190575 6.25 5.0625 C10.73744556 10.03074329 20.82216367 9.54020963 27.11328125 9.921875 C33.55993207 10.11718578 39.99802609 9.71801126 46.4375 9.4375 C65.56256104 8.67521222 81.16149707 9.31752918 96.4375 22.3125 C108.15429495 33.68355346 112.88570665 47.29461106 116.625 62.875 C117.1940587 65.22813464 117.7693749 67.57976665 118.3515625 69.9296875 C118.59729004 70.95304199 118.84301758 71.97639648 119.09619141 73.03076172 C120.07993005 76.2625903 121.33393335 79.06286935 123 82 C125.94875877 83.47437939 127.69179497 83.36089509 131 83 C133.34528622 81.78193761 135.54621277 80.44821299 137.75390625 78.99609375 C140.6052337 77.73159201 142.07383196 78.04441551 145 79 C147.13735343 81.52596314 146.99796847 83.05485129 146.875 86.375 C145.45292565 92.2664509 142.98081075 95.57699365 137.9375 98.8125 C133.13767096 101.65923162 129.33128467 102.18329142 123.75 102.25 C122.46609375 102.27578125 121.1821875 102.3015625 119.859375 102.328125 C115.51329162 101.95861994 112.87554314 100.90765077 109 99 C108.37116466 102.06175652 107.74656168 105.12426464 107.125 108.1875 C106.9386499 109.09773926 106.7522998 110.00797852 106.56030273 110.94580078 C105.52492046 116.08409544 104.68492119 121.17204232 104.0625 126.375 C103.26362196 131.79347711 102.16385574 134.40394277 98 138 C92.72069952 141.86290279 86.31312735 141.89685096 80 141 C77.66796875 139.72265625 77.66796875 139.72265625 76 138 C75.71145639 135.98019476 75.42956933 133.95649978 75.27734375 131.921875 C74.90423169 129.33636604 73.64130108 127.98323881 72 126 C71.3125 123.25 71.3125 123.25 71 121 C70.17230103 121.24339111 70.17230103 121.24339111 69.32788086 121.49169922 C66.73864942 122.0570668 64.40375191 122.12953096 61.75390625 122.1328125 C60.75166016 122.13410156 59.74941406 122.13539063 58.71679688 122.13671875 C57.67587891 122.13285156 56.63496094 122.12898438 55.5625 122.125 C54.00692383 122.13080078 54.00692383 122.13080078 52.41992188 122.13671875 C51.41638672 122.13542969 50.41285156 122.13414062 49.37890625 122.1328125 C48.4669751 122.13168457 47.55504395 122.13055664 46.61547852 122.12939453 C43.98607307 121.999311 41.56390002 121.58261251 39 121 C38.97421875 121.68964844 38.9484375 122.37929687 38.921875 123.08984375 C38.48419564 130.34139504 37.76322524 137.43703508 32.23828125 142.66796875 C27.48424746 146.00233037 23.72810821 146.85921623 18 146 C15.03141843 143.79259319 14.17134209 142.51402627 13 139 C12.89763211 136.81330809 12.81725082 134.62555348 12.75 132.4375 C12.31939177 125.94473522 11.21030279 120.14592563 7 115 C1.44791667 112.1337963 -4.84896141 110.84090255 -11 112 C-15.63699867 115.88505294 -19.28452197 120.56904394 -22 126 C-22.66 126 -23.32 126 -24 126 C-24.3403125 127.0828125 -24.3403125 127.0828125 -24.6875 128.1875 C-26.26335128 131.56432417 -28.20876616 133.55767039 -31 136 C-31.66 136 -32.32 136 -33 136 C-33 136.66 -33 137.32 -33 138 C-38.57866014 142.09101744 -43.05026904 143.78727421 -50 143 C-52.91927604 141.6038245 -54.72202996 140.27797004 -57 138 C-57.4375 135.1875 -57.4375 135.1875 -57 132 C-54.6875 129.375 -54.6875 129.375 -52 127 C-46.06907685 120.62974921 -46.71310715 111.5147509 -46.8125 103.375 C-46.81314453 102.364375 -46.81378906 101.35375 -46.81445312 100.3125 C-46.84333782 95.42135853 -47.05772328 90.81444509 -48 86 C-48.38338091 80.971469 -47.96321123 76.67539873 -46.625 71.8125 C-45.9927237 69.33397194 -45.9927237 69.33397194 -46 67 C-48.35253785 64.14480839 -48.35253785 64.14480839 -50.328125 62.60546875 C-54.88975244 58.22502744 -56.2406556 51.61188297 -56.5 45.5 C-56.33065068 40.53242001 -54.96823107 36.57093869 -52.875 32.09375 C-51.82055271 29.57060827 -51.80301458 27.76872359 -52.48046875 25.125 C-53.69204979 20.16936025 -53.9705696 14.89702239 -51.625 10.3125 C-48.55950091 8.77975046 -47.66532972 9.07143824 -44.375 9.625 C-38.70197504 10.48683123 -35.87329298 8.61848685 -31.24609375 5.5 C-23.40904901 0.26621708 -14.02886301 0.9091798 -5.01171875 1.0625 C-2.07645941 1.21679634 -2.07645941 1.21679634 0 0 Z M-23 37 C-23.639375 38.010625 -24.27875 39.02125 -24.9375 40.0625 C-30.13990754 47.8268182 -40.59565845 51.58308336 -49 55 C-48.78087133 58.83475164 -48.05971606 59.94164113 -45.25 62.6875 C-42.45975 64.67287019 -40.16654652 65.82385415 -37 67 C-36.67 67.66 -36.34 68.32 -36 69 C-37.98 68.67 -39.96 68.34 -42 68 C-44.14818977 72.33883388 -44.27010565 76.31919686 -44.1875 81.0625 C-44.1865332 82.12307617 -44.1865332 82.12307617 -44.18554688 83.20507812 C-44.15773165 87.12689906 -44.15773165 87.12689906 -43.50219727 90.97875977 C-40.93886485 101.29564313 -42.0859088 116.22826885 -46 126 C-47.71959483 127.97180207 -49.38874624 129.35765829 -51.5390625 130.83203125 C-53.30293279 131.98671378 -53.30293279 131.98671378 -53.5625 134.75 C-53.15899348 137.18400369 -53.15899348 137.18400369 -51 139 C-46.52493526 140.04991904 -42.55429066 139.81792147 -38.46875 137.66796875 C-32.31133792 133.04016695 -27.84706108 127.29291803 -23.33984375 121.13671875 C-20.79907431 117.73064552 -18.06974806 114.59809295 -15.1796875 111.48828125 C-13.792941 110.05529599 -13.792941 110.05529599 -14 108 C-15.29233607 106.62689293 -16.62437146 105.28965176 -18 104 C-17.51273438 104.26554687 -17.02546875 104.53109375 -16.5234375 104.8046875 C-10.49216466 107.80935797 -4.81324165 108.78801135 1.86328125 109.5078125 C5.93483964 110.14668717 8.029821 110.82306154 10.66796875 114.0234375 C11.16941406 114.79945313 11.67085938 115.57546875 12.1875 116.375 C12.69667969 117.14585937 13.20585938 117.91671875 13.73046875 118.7109375 C16.6859974 124.039983 16.32648771 129.81154864 16.62109375 135.78515625 C16.77106944 139.14788993 16.77106944 139.14788993 19 142 C23.85847431 141.97883018 27.04160777 141.79171532 30.875 138.625 C36.64666978 130.31477897 36.84844198 118.45249442 37.90429688 108.7265625 C38.07735352 107.24929687 38.07735352 107.24929687 38.25390625 105.7421875 C38.35002197 104.8538623 38.4461377 103.96553711 38.54516602 103.05029297 C38.69526123 102.37369629 38.84535645 101.69709961 39 101 C39.66 100.67 40.32 100.34 41 100 C40.91621094 101.21558594 40.83242187 102.43117188 40.74609375 103.68359375 C40.64295297 105.26821121 40.54010339 106.85284765 40.4375 108.4375 C40.38142578 109.23994141 40.32535156 110.04238281 40.26757812 110.86914062 C40.1383705 112.91062111 40.0648727 114.95546369 40 117 C42.67019782 119.67019782 50.23251184 118.33356931 53.8125 118.375 C55.58657227 118.43107422 55.58657227 118.43107422 57.39648438 118.48828125 C69.34735051 118.60628212 78.22774498 114.57747934 88 108 C87.319375 108.5775 86.63875 109.155 85.9375 109.75 C85.298125 110.4925 84.65875 111.235 84 112 C84.2127322 113.8618034 84.2127322 113.8618034 85 116 C85.30641844 122.43478715 85.07492094 126.51009488 80.8125 131.625 C80.214375 132.40875 79.61625 133.1925 79 134 C79.33 134.99 79.66 135.98 80 137 C88.97973489 137.56746447 88.97973489 137.56746447 97 134 C100.84285499 129.23798885 101.0957844 123.48623681 101.9375 117.625 C103.03379773 110.46137282 104.21647495 103.46073706 106.25 96.5 C107.71050492 91.42816847 108.42923395 87.25811583 108 82 C108.99 82 109.98 82 111 82 C110.82210937 83.35544922 110.82210937 83.35544922 110.640625 84.73828125 C110.51171875 85.91777344 110.3828125 87.09726563 110.25 88.3125 C110.11078125 89.48425781 109.9715625 90.65601563 109.828125 91.86328125 C109.70910648 94.97100383 109.70910648 94.97100383 111.40234375 96.88671875 C115.34768437 98.57757902 119.06236226 98.51302724 123.3125 98.5 C124.14201172 98.52835938 124.97152344 98.55671875 125.82617188 98.5859375 C132.15002298 98.6059023 135.22939185 97.14647418 140 93 C142.94867259 89.29037964 143.32720056 86.68987468 143 82 C139.13153189 82.37741152 136.96163448 83.02415607 133.625 85.125 C130.894438 86.77181345 129.01075789 87.31487802 125.8125 87.125 C122 86 122 86 119.625 83.25 C117.46052587 78.92105175 115.84342627 74.78095961 114.78125 70.05859375 C114.57113281 69.14529297 114.36101562 68.23199219 114.14453125 67.29101562 C113.71400422 65.38495506 113.28431991 63.47870395 112.85546875 61.57226562 C112.54029297 60.20424805 112.54029297 60.20424805 112.21875 58.80859375 C112.03248047 57.98157959 111.84621094 57.15456543 111.65429688 56.30249023 C111.00474525 54.01669868 110.13249361 52.08332136 109 50 C106.35138212 51.01270683 103.86528568 52.07377213 101.375 53.4375 C92.0301542 57.7638175 82.9513699 58.52158272 72.75 58.4375 C71.46746338 58.42992676 70.18492676 58.42235352 68.86352539 58.41455078 C54.8478075 58.17064435 38.25859532 55.78423288 27.9375 45.1875 C27.298125 44.465625 26.65875 43.74375 26 43 C25.01 42.67 24.02 42.34 23 42 C22.82984375 42.59167969 22.6596875 43.18335938 22.484375 43.79296875 C21.01171605 48.59477692 19.63398989 52.36601011 16 56 C14.515 56.495 14.515 56.495 13 57 C13.78375 56.113125 14.5675 55.22625 15.375 54.3125 C19.20727404 49.67685973 20.2814343 46.05083737 20 40 C18.72253906 40.16113281 17.44507812 40.32226562 16.12890625 40.48828125 C11.05537289 41.04913947 6.03850871 41.18359716 0.9375 41.1875 C-0.3319043 41.20586914 -0.3319043 41.20586914 -1.62695312 41.22460938 C-8.29190487 41.24002561 -14.3119851 40.79200993 -20 37 C-20.99 37 -21.98 37 -23 37 Z " fill="#FBD09A" transform="translate(81,54)"/>
<path d="M0 0 C2.79693155 1.36260768 4.61933682 2.37190575 6.25 5.0625 C10.73744556 10.03074329 20.82216367 9.54020963 27.11328125 9.921875 C33.55993207 10.11718578 39.99802609 9.71801126 46.4375 9.4375 C65.56256104 8.67521222 81.16149707 9.31752918 96.4375 22.3125 C108.15429495 33.68355346 112.88570665 47.29461106 116.625 62.875 C117.1940587 65.22813464 117.7693749 67.57976665 118.3515625 69.9296875 C118.59729004 70.95304199 118.84301758 71.97639648 119.09619141 73.03076172 C120.07993005 76.2625903 121.33393335 79.06286935 123 82 C125.94875877 83.47437939 127.69179497 83.36089509 131 83 C133.34528622 81.78193761 135.54621277 80.44821299 137.75390625 78.99609375 C140.6052337 77.73159201 142.07383196 78.04441551 145 79 C147.13735343 81.52596314 146.99796847 83.05485129 146.875 86.375 C145.45292565 92.2664509 142.98081075 95.57699365 137.9375 98.8125 C133.13767096 101.65923162 129.33128467 102.18329142 123.75 102.25 C122.46609375 102.27578125 121.1821875 102.3015625 119.859375 102.328125 C115.51329162 101.95861994 112.87554314 100.90765077 109 99 C108.37116466 102.06175652 107.74656168 105.12426464 107.125 108.1875 C106.9386499 109.09773926 106.7522998 110.00797852 106.56030273 110.94580078 C105.52492046 116.08409544 104.68492119 121.17204232 104.0625 126.375 C103.26362196 131.79347711 102.16385574 134.40394277 98 138 C92.72069952 141.86290279 86.31312735 141.89685096 80 141 C77.66796875 139.72265625 77.66796875 139.72265625 76 138 C75.71145639 135.98019476 75.42956933 133.95649978 75.27734375 131.921875 C74.90423169 129.33636604 73.64130108 127.98323881 72 126 C71.3125 123.25 71.3125 123.25 71 121 C70.17230103 121.24339111 70.17230103 121.24339111 69.32788086 121.49169922 C66.73864942 122.0570668 64.40375191 122.12953096 61.75390625 122.1328125 C60.75166016 122.13410156 59.74941406 122.13539063 58.71679688 122.13671875 C57.67587891 122.13285156 56.63496094 122.12898438 55.5625 122.125 C54.00692383 122.13080078 54.00692383 122.13080078 52.41992188 122.13671875 C51.41638672 122.13542969 50.41285156 122.13414062 49.37890625 122.1328125 C48.4669751 122.13168457 47.55504395 122.13055664 46.61547852 122.12939453 C43.98607307 121.999311 41.56390002 121.58261251 39 121 C38.97421875 121.68964844 38.9484375 122.37929687 38.921875 123.08984375 C38.48419564 130.34139504 37.76322524 137.43703508 32.23828125 142.66796875 C27.48424746 146.00233037 23.72810821 146.85921623 18 146 C15.03141843 143.79259319 14.17134209 142.51402627 13 139 C12.89763211 136.81330809 12.81725082 134.62555348 12.75 132.4375 C12.31939177 125.94473522 11.21030279 120.14592563 7 115 C1.44791667 112.1337963 -4.84896141 110.84090255 -11 112 C-15.63699867 115.88505294 -19.28452197 120.56904394 -22 126 C-22.66 126 -23.32 126 -24 126 C-24.3403125 127.0828125 -24.3403125 127.0828125 -24.6875 128.1875 C-26.26335128 131.56432417 -28.20876616 133.55767039 -31 136 C-31.66 136 -32.32 136 -33 136 C-33 136.66 -33 137.32 -33 138 C-38.57866014 142.09101744 -43.05026904 143.78727421 -50 143 C-52.91927604 141.6038245 -54.72202996 140.27797004 -57 138 C-57.4375 135.1875 -57.4375 135.1875 -57 132 C-54.6875 129.375 -54.6875 129.375 -52 127 C-46.06907685 120.62974921 -46.71310715 111.5147509 -46.8125 103.375 C-46.81314453 102.364375 -46.81378906 101.35375 -46.81445312 100.3125 C-46.84333782 95.42135853 -47.05772328 90.81444509 -48 86 C-48.38338091 80.971469 -47.96321123 76.67539873 -46.625 71.8125 C-45.9927237 69.33397194 -45.9927237 69.33397194 -46 67 C-48.35253785 64.14480839 -48.35253785 64.14480839 -50.328125 62.60546875 C-54.88975244 58.22502744 -56.2406556 51.61188297 -56.5 45.5 C-56.33065068 40.53242001 -54.96823107 36.57093869 -52.875 32.09375 C-51.82055271 29.57060827 -51.80301458 27.76872359 -52.48046875 25.125 C-53.69204979 20.16936025 -53.9705696 14.89702239 -51.625 10.3125 C-48.55950091 8.77975046 -47.66532972 9.07143824 -44.375 9.625 C-38.70197504 10.48683123 -35.87329298 8.61848685 -31.24609375 5.5 C-23.40904901 0.26621708 -14.02886301 0.9091798 -5.01171875 1.0625 C-2.07645941 1.21679634 -2.07645941 1.21679634 0 0 Z M-2.60546875 5.2421875 C-3.12753906 5.78101563 -3.64960937 6.31984375 -4.1875 6.875 C-4.71730469 7.40867187 -5.24710938 7.94234375 -5.79296875 8.4921875 C-7.20831389 9.93831877 -7.20831389 9.93831877 -7 12 C-7.99 12 -8.98 12 -10 12 C-9.34 11.21625 -8.68 10.4325 -8 9.625 C-5.79798559 7.28487188 -5.79798559 7.28487188 -6 5 C-9.66851436 4.93828667 -13.33133331 4.9522309 -17 5 C-17.763125 4.99226563 -18.52625 4.98453125 -19.3125 4.9765625 C-26.44488434 5.26500451 -32.33006303 8.84588374 -38 13 C-38 13.66 -38 14.32 -38 15 C-39.65 15 -41.3 15 -43 15 C-43 14.34 -43 13.68 -43 13 C-44.98 13 -46.96 13 -49 13 C-49.21722838 20.14765283 -49.21722838 20.14765283 -48.25 27.1875 C-47.92092124 30.88963607 -49.17500663 32.90613043 -50.9921875 36.0703125 C-53.18782336 40.27435946 -53.3848082 44.30533997 -53 49 C-51.07015233 55.02028566 -48.01373293 61.90365541 -42.16015625 64.9609375 C-40.45078554 65.66705792 -38.72619848 66.33607751 -37 67 C-36.505 67.99 -36.505 67.99 -36 69 C-37.98 68.67 -39.96 68.34 -42 68 C-44.14818977 72.33883388 -44.27010565 76.31919686 -44.1875 81.0625 C-44.1865332 82.12307617 -44.1865332 82.12307617 -44.18554688 83.20507812 C-44.15773165 87.12689906 -44.15773165 87.12689906 -43.50219727 90.97875977 C-40.93886485 101.29564313 -42.0859088 116.22826885 -46 126 C-47.71959483 127.97180207 -49.38874624 129.35765829 -51.5390625 130.83203125 C-53.30293279 131.98671378 -53.30293279 131.98671378 -53.5625 134.75 C-53.15899348 137.18400369 -53.15899348 137.18400369 -51 139 C-46.52493526 140.04991904 -42.55429066 139.81792147 -38.46875 137.66796875 C-32.31133792 133.04016695 -27.84706108 127.29291803 -23.33984375 121.13671875 C-20.79907431 117.73064552 -18.06974806 114.59809295 -15.1796875 111.48828125 C-13.792941 110.05529599 -13.792941 110.05529599 -14 108 C-15.29233607 106.62689293 -16.62437146 105.28965176 -18 104 C-17.51273438 104.26554687 -17.02546875 104.53109375 -16.5234375 104.8046875 C-10.49216466 107.80935797 -4.81324165 108.78801135 1.86328125 109.5078125 C5.93483964 110.14668717 8.029821 110.82306154 10.66796875 114.0234375 C11.16941406 114.79945313 11.67085938 115.57546875 12.1875 116.375 C12.69667969 117.14585937 13.20585938 117.91671875 13.73046875 118.7109375 C16.6859974 124.039983 16.32648771 129.81154864 16.62109375 135.78515625 C16.77106944 139.14788993 16.77106944 139.14788993 19 142 C23.85847431 141.97883018 27.04160777 141.79171532 30.875 138.625 C36.64666978 130.31477897 36.84844198 118.45249442 37.90429688 108.7265625 C38.07735352 107.24929687 38.07735352 107.24929687 38.25390625 105.7421875 C38.35002197 104.8538623 38.4461377 103.96553711 38.54516602 103.05029297 C38.69526123 102.37369629 38.84535645 101.69709961 39 101 C39.66 100.67 40.32 100.34 41 100 C40.91621094 101.21558594 40.83242187 102.43117188 40.74609375 103.68359375 C40.64295297 105.26821121 40.54010339 106.85284765 40.4375 108.4375 C40.38142578 109.23994141 40.32535156 110.04238281 40.26757812 110.86914062 C40.1383705 112.91062111 40.0648727 114.95546369 40 117 C42.67019782 119.67019782 50.23251184 118.33356931 53.8125 118.375 C55.58657227 118.43107422 55.58657227 118.43107422 57.39648438 118.48828125 C69.34735051 118.60628212 78.22774498 114.57747934 88 108 C87.319375 108.5775 86.63875 109.155 85.9375 109.75 C85.298125 110.4925 84.65875 111.235 84 112 C84.2127322 113.8618034 84.2127322 113.8618034 85 116 C85.30641844 122.43478715 85.07492094 126.51009488 80.8125 131.625 C80.214375 132.40875 79.61625 133.1925 79 134 C79.33 134.99 79.66 135.98 80 137 C88.97973489 137.56746447 88.97973489 137.56746447 97 134 C100.84285499 129.23798885 101.0957844 123.48623681 101.9375 117.625 C103.03379773 110.46137282 104.21647495 103.46073706 106.25 96.5 C107.71050492 91.42816847 108.42923395 87.25811583 108 82 C108.99 82 109.98 82 111 82 C110.82210937 83.35544922 110.82210937 83.35544922 110.640625 84.73828125 C110.51171875 85.91777344 110.3828125 87.09726563 110.25 88.3125 C110.11078125 89.48425781 109.9715625 90.65601563 109.828125 91.86328125 C109.70910648 94.97100383 109.70910648 94.97100383 111.40234375 96.88671875 C115.34768437 98.57757902 119.06236226 98.51302724 123.3125 98.5 C124.14201172 98.52835937 124.97152344 98.55671875 125.82617188 98.5859375 C132.15002298 98.6059023 135.22939185 97.14647418 140 93 C142.94867259 89.29037964 143.32720056 86.68987468 143 82 C139.13153189 82.37741152 136.96163448 83.02415607 133.625 85.125 C130.894438 86.77181345 129.01075789 87.31487802 125.8125 87.125 C122 86 122 86 119.625 83.25 C116.6494269 77.29885381 115.13454389 71.52385304 113.6875 65.0625 C109.0896973 45.39440404 102.7607518 30.02034763 85.125 18.75 C76.35775497 13.31247521 67.35912437 12.58251594 57.2734375 12.77734375 C56.08577789 12.78633194 54.89811829 12.79532013 53.67446899 12.80458069 C49.90767057 12.83440614 46.14153364 12.88418179 42.375 12.9375 C38.60137268 12.98546575 34.82791483 13.0287865 31.05410767 13.05970764 C28.71445932 13.0793304 26.37486613 13.10880368 24.03549194 13.14964294 C17.97162008 13.20546544 12.80366795 12.79159766 7 11 C7 11.99 7 12.98 7 14 C6.34 14 5.68 14 5 14 C4.87625 12.906875 4.7525 11.81375 4.625 10.6875 C4.24535199 6.92618198 4.24535199 6.92618198 2 4 C-0.94286738 3.69402985 -0.94286738 3.69402985 -2.60546875 5.2421875 Z " fill="#0F0E0D" transform="translate(81,54)"/>
<path d="M0 0 C4.19508924 -0.10028716 8.38950905 -0.17212116 12.58544922 -0.21972656 C14.00712262 -0.23961011 15.42871683 -0.26672727 16.85009766 -0.30175781 C26.09870786 -0.52367224 34.45467715 -0.03333302 43 4 C43.66 4.66 44.32 5.32 45 6 C44.34 6.33 43.68 6.66 43 7 C43.66 7.99 44.32 8.98 45 10 C45.484375 12.375 45.484375 12.375 45.75 15 C45.89695312 16.299375 45.89695312 16.299375 46.046875 17.625 C46 20 46 20 44 23 C42.09375 22.76171875 42.09375 22.76171875 40 22 C39.09375 20.14453125 39.09375 20.14453125 38.5 17.8125 C36.44780587 10.88771661 33.0963885 6.02591694 27 2 C23.99755122 1.33169716 21.07126439 1.07507535 18 1 C18.48210937 1.65226562 18.96421875 2.30453125 19.4609375 2.9765625 C24.83619329 10.41416133 27.61720003 15.74199951 27 25 C26.34 25.66 25.68 26.32 25 27 C22.375 26.625 22.375 26.625 20 26 C19.87625 25.26136719 19.7525 24.52273437 19.625 23.76171875 C18.08692926 16.19633327 15.4773058 11.1880018 10.64453125 5.1796875 C9 3 9 3 9 1 C6.03 1 3.06 1 0 1 C0 0.67 0 0.34 0 0 Z " fill="#E6A975" transform="translate(120,67)"/>
<path d="M0 0 C16.04173505 -1.52778429 16.04173505 -1.52778429 20.71875 2.12109375 C24.73934479 7.99013996 26.25890297 12.88016831 26 20 C25.67 20.66 25.34 21.32 25 22 C22.625 22.125 22.625 22.125 20 22 C17.6864675 19.6864675 17.76012727 19.05703085 17.375 15.9375 C16.12870043 9.92994658 12.79038727 5.74718447 8 2 C5.08658876 1.00746498 3.12607058 0.94417731 0 1 C0 0.67 0 0.34 0 0 Z " fill="#EAAC77" transform="translate(102,68)"/>
<path d="M0 0 C-0.66 1.32 -1.32 2.64 -2 4 C-2.66 4 -3.32 4 -4 4 C-3.67 4.495 -3.34 4.99 -3 5.5 C-1.2279911 9.93002225 -1.54574744 14.29655289 -2.75 18.8125 C-4.16846907 21.29482087 -5.69264738 22.36328035 -8 24 C-8.53109375 23.08476562 -9.0621875 22.16953125 -9.609375 21.2265625 C-10.32237522 20.02572002 -11.03594699 18.82521676 -11.75 17.625 C-12.09804687 17.02171875 -12.44609375 16.4184375 -12.8046875 15.796875 C-14.79365866 12.48192307 -16.25896388 10.26386355 -20 9 C-19.20335937 8.68546875 -18.40671875 8.3709375 -17.5859375 8.046875 C-12.87574544 6.14446166 -4.77803259 0 0 0 Z " fill="#373737" transform="translate(169,162)"/>
<path d="M0 0 C3.47339053 0.56508523 4.95006976 1.62643336 7.1875 4.3125 C7.95126953 5.20388672 7.95126953 5.20388672 8.73046875 6.11328125 C12.48743989 11.69671836 11.54007647 19.59206572 11 26 C9.69765497 29.90703509 7.34167141 33.53006896 4 36 C3.01 36 2.02 36 1 36 C2 33 2 33 3.375 31.75 C7.69150094 27.10146052 8.60385523 21.6427723 8.42578125 15.50390625 C7.71976587 11.35201762 5.74243556 8.1518696 3 5 C2.01 4.34 1.02 3.68 0 3 C0 2.01 0 1.02 0 0 Z " fill="#403527" transform="translate(93,75)"/>
<path d="M0 0 C0 4.29 0 8.58 0 13 C-1.98 13.33 -3.96 13.66 -6 14 C-7 13 -7 13 -7.09765625 10.49609375 C-7.08605469 9.48675781 -7.07445312 8.47742188 -7.0625 7.4375 C-7.05347656 6.42558594 -7.04445313 5.41367188 -7.03515625 4.37109375 C-7.02355469 3.58863281 -7.01195312 2.80617187 -7 2 C-8.65 2 -10.3 2 -12 2 C-12 1.67 -12 1.34 -12 1 C-10.56274129 0.83126522 -9.12518162 0.66509263 -7.6875 0.5 C-6.88699219 0.4071875 -6.08648437 0.314375 -5.26171875 0.21875 C-3 0 -3 0 0 0 Z " fill="#E9AB76" transform="translate(67,59)"/>
<path d="M0 0 C0.63019694 8.19256018 0.63019694 8.19256018 -2 11.5625 C-2.66 12.036875 -3.32 12.51125 -4 13 C-4.84495189 11.92570402 -5.67554858 10.84010798 -6.5 9.75 C-6.9640625 9.14671875 -7.428125 8.5434375 -7.90625 7.921875 C-9 6 -9 6 -9 2 C-3.375 -1.125 -3.375 -1.125 0 0 Z " fill="#EDEDED" transform="translate(164,170)"/>
<path d="M0 0 C-0.33 3.96 -0.66 7.92 -1 12 C-2.65 12 -4.3 12 -6 12 C-7.97610386 9.95575462 -9 8.8823175 -9 6 C-9.66 5.67 -10.32 5.34 -11 5 C-9.73461631 4.15841464 -8.46246221 3.32700252 -7.1875 2.5 C-6.47980469 2.0359375 -5.77210937 1.571875 -5.04296875 1.09375 C-3 0 -3 0 0 0 Z " fill="#E3A774" transform="translate(54,62)"/>
<path d="M0 0 C0.66 0 1.32 0 2 0 C2 5.94 2 11.88 2 18 C0.35 18.33 -1.3 18.66 -3 19 C-2.69277348 16.02020106 -2.37948528 13.04126241 -2.0625 10.0625 C-1.97548828 9.21236328 -1.88847656 8.36222656 -1.79882812 7.48632812 C-1.71181641 6.67744141 -1.62480469 5.86855469 -1.53515625 5.03515625 C-1.456604 4.2862915 -1.37805176 3.53742676 -1.29711914 2.76586914 C-1 1 -1 1 0 0 Z " fill="#3F3F3E" transform="translate(120,154)"/>
<path d="M0 0 C-1 3 -1 3 -3.375 4.1875 C-8.28077818 5.28707097 -12.99480813 5.16030864 -18 5 C-18 4.01 -18 3.02 -18 2 C-15.56281065 1.66424944 -13.12529385 1.33130715 -10.6875 1 C-9.99720703 0.90460938 -9.30691406 0.80921875 -8.59570312 0.7109375 C-5.70352927 0.31972558 -2.92235023 0 0 0 Z " fill="#424241" transform="translate(76,120)"/>
<path d="M0 0 C2.97 0.33 5.94 0.66 9 1 C9.33 1.99 9.66 2.98 10 4 C9.38511719 3.96519531 8.77023438 3.93039063 8.13671875 3.89453125 C6.92435547 3.85392578 6.92435547 3.85392578 5.6875 3.8125 C4.88699219 3.77769531 4.08648437 3.74289063 3.26171875 3.70703125 C0.47940234 4.06743493 -0.13213895 5.00656846 -2 7 C-2.99 7 -3.98 7 -5 7 C-4.67 6.01 -4.34 5.02 -4 4 C-3.34 4 -2.68 4 -2 4 C-1.34 2.68 -0.68 1.36 0 0 Z " fill="#3E3E3E" transform="translate(62,97)"/>
<path d="M0 0 C0.99 0.33 1.98 0.66 3 1 C1.6389689 6.19666421 -0.30387451 9.2137251 -4 13 C-4.99 13 -5.98 13 -7 13 C-6 10 -6 10 -4.625 8.75 C-2.22035763 6.16038514 -1.298374 3.27684866 0 0 Z " fill="#403F3F" transform="translate(101,98)"/>
<path d="M0 0 C0.99 0 1.98 0 3 0 C2.67 4.29 2.34 8.58 2 13 C1.67 12.34 1.34 11.68 1 11 C0.34 11 -0.32 11 -1 11 C-0.67 7.37 -0.34 3.74 0 0 Z " fill="#464646" transform="translate(189,136)"/>
<path d="M0 0 C0.515625 0.391875 1.03125 0.78375 1.5625 1.1875 C-4.1875 4.1875 -4.1875 4.1875 -6.4375 4.1875 C-6.7675 4.8475 -7.0975 5.5075 -7.4375 6.1875 C-9.9125 5.1975 -9.9125 5.1975 -12.4375 4.1875 C-4.10416667 -1.36805556 -4.10416667 -1.36805556 0 0 Z " fill="#363535" transform="translate(161.4375,167.8125)"/>
<path d="M0 0 C0.66 0 1.32 0 2 0 C3.38226016 2.76452033 3.09525387 5.0461363 3.0625 8.125 C3.05347656 9.22070312 3.04445313 10.31640625 3.03515625 11.4453125 C3.02355469 12.28835937 3.01195313 13.13140625 3 14 C2.01 14.495 2.01 14.495 1 15 C0.67 10.05 0.34 5.1 0 0 Z " fill="#181613" transform="translate(101,85)"/>
<path d="M0 0 C-0.66 1.32 -1.32 2.64 -2 4 C-2.66 4 -3.32 4 -4 4 C-3.67 5.32 -3.34 6.64 -3 8 C-3.99 8 -4.98 8 -6 8 C-6 7.34 -6 6.68 -6 6 C-6.66 6 -7.32 6 -8 6 C-6.72879117 2.18637351 -4.19078006 0 0 0 Z " fill="#262626" transform="translate(169,162)"/>
<path d="M0 0 C0.99 0.33 1.98 0.66 3 1 C1.1875 4 1.1875 4 -1 7 C-1.99 7 -2.98 7 -4 7 C-2.79618552 4.50638429 -1.54571278 2.31856917 0 0 Z " fill="#29221A" transform="translate(75,59)"/>
<path d="M0 0 C0.99 0 1.98 0 3 0 C3 2.64 3 5.28 3 8 C2.01 8.495 2.01 8.495 1 9 C0.67 6.03 0.34 3.06 0 0 Z " fill="#313131" transform="translate(164,170)"/>
<path d="M0 0 C0.99 0 1.98 0 3 0 C3 1.65 3 3.3 3 5 C1.68 5 0.36 5 -1 5 C-0.67 3.35 -0.34 1.7 0 0 Z " fill="#382E22" transform="translate(49,89)"/>
<path d="M0 0 C3 2 3 2 3.6875 4.625 C3.790625 5.40875 3.89375 6.1925 4 7 C2.35 7.33 0.7 7.66 -1 8 C-0.67 5.36 -0.34 2.72 0 0 Z " fill="#5A5A5A" transform="translate(118,165)"/>
<path d="M0 0 C2.97 0.99 5.94 1.98 9 3 C5.71023192 4.09658936 4.28696233 3.79953138 1 3 C0.67 2.01 0.34 1.02 0 0 Z " fill="#3B3B3A" transform="translate(63,158)"/>
<path d="M0 0 C0.66 0.99 1.32 1.98 2 3 C0.6875 4.5 0.6875 4.5 -1 6 C-1.99 6 -2.98 6 -4 6 C-3.67 5.01 -3.34 4.02 -3 3 C-2.34 3 -1.68 3 -1 3 C-0.67 2.01 -0.34 1.02 0 0 Z " fill="#333232" transform="translate(61,98)"/>
</svg>
