<?xml version="1.0" encoding="UTF-8"?>
<svg version="1.1" xmlns="http://www.w3.org/2000/svg" width="127" height="129">
<path d="M0 0 C0.87398438 0.36222656 1.74796875 0.72445313 2.6484375 1.09765625 C15.76281207 7.04956471 25.83146835 17.15840765 32.3125 29.875 C32.63814941 30.51050781 32.96379883 31.14601562 33.29931641 31.80078125 C37.75593906 41.0153063 39.54735739 50.11392799 39.4375 60.3125 C39.42920166 61.31651855 39.42090332 62.32053711 39.41235352 63.35498047 C39.0187603 80.74871899 32.21628934 95.93419663 19.9453125 108.2734375 C5.60292114 121.93059185 -11.05644073 125.51349968 -30.1953125 125.28125 C-37.04513082 125.06121086 -42.69223196 123.7721459 -49 121 C-49.87398437 120.63777344 -50.74796875 120.27554688 -51.6484375 119.90234375 C-64.76281207 113.95043529 -74.83146835 103.84159235 -81.3125 91.125 C-81.63814941 90.48949219 -81.96379883 89.85398437 -82.29931641 89.19921875 C-86.75593906 79.9846937 -88.54735739 70.88607201 -88.4375 60.6875 C-88.42920166 59.68348145 -88.42090332 58.67946289 -88.41235352 57.64501953 C-88.0187603 40.25128101 -81.21628934 25.06580337 -68.9453125 12.7265625 C-51.22837408 -4.14391304 -22.62877052 -9.94492076 0 0 Z " fill="#030000" transform="translate(88,4)"/>
<path d="M0 0 C0.87720703 -0.01224609 1.75441406 -0.02449219 2.65820312 -0.03710938 C12.88809482 -0.06006351 21.94953043 2.91947967 30.1875 9.1875 C31.9863984 11.11421487 33.5723648 13.09732504 35.1875 15.1875 C33.89146588 18.01618857 32.49560402 20.1576021 30.3671875 22.421875 C29.56474609 23.28232422 29.56474609 23.28232422 28.74609375 24.16015625 C27.91271484 25.03994141 27.91271484 25.03994141 27.0625 25.9375 C26.21751953 26.84048828 26.21751953 26.84048828 25.35546875 27.76171875 C23.97025854 29.24084151 22.5794271 30.71469641 21.1875 32.1875 C17.86235839 31.5693647 17.07590752 31.0835161 14.4375 28.625 C8.74959173 24.37143381 0.88720272 25.4500457 -5.8125 26.1875 C-11.01916633 27.61744067 -13.94354196 31.15716172 -16.8671875 35.50390625 C-19.28293049 39.80632454 -18.99615724 44.15710722 -19 48.9375 C-19.01836914 50.11699219 -19.01836914 50.11699219 -19.03710938 51.3203125 C-19.04959648 56.33180555 -18.41923771 60.43714503 -16.8125 65.1875 C-16.1525 65.1875 -15.4925 65.1875 -14.8125 65.1875 C-13.7296875 66.3321875 -13.7296875 66.3321875 -12.625 67.5 C-8.49701001 71.44452377 -4.30006405 73.29845783 1.375 73.75 C8.07132691 73.55372835 15.48391803 69.89108197 20.1875 65.1875 C21.5075 65.1875 22.8275 65.1875 24.1875 65.1875 C25.93359375 66.9453125 25.93359375 66.9453125 27.625 69.3125 C29.69143011 72.1538414 31.74485267 74.85449921 34.125 77.4375 C36.1875 80.1875 36.1875 80.1875 36.55859375 82.640625 C36.1875 85.1875 36.1875 85.1875 34.5703125 87.03125 C20.06040689 97.6751946 5.90842042 100.50013483 -11.96337891 97.87109375 C-15.75861552 97.0539328 -19.27034224 95.75550888 -22.8125 94.1875 C-23.64910156 93.82527344 -24.48570313 93.46304688 -25.34765625 93.08984375 C-33.54516333 89.05267415 -39.98238187 81.45022675 -43.8125 73.1875 C-45.85328129 66.7238408 -46.1286211 60.75046399 -46.0625 54 C-46.05355713 52.98059326 -46.04461426 51.96118652 -46.03540039 50.91088867 C-45.79672223 35.37454832 -43.48866773 24.21558326 -32.75 12.375 C-23.49937886 3.61880861 -12.47448006 0.00904603 0 0 Z " fill="#FEFBF2" transform="translate(61.8125,12.8125)"/>
<path d="M0 0 C1.32 0.66 2.64 1.32 4 2 C3.66951441 7.28776943 0.51647805 11.24100622 -3 15 C-3.66 15 -4.32 15 -5 15 C-5.33 15.99 -5.66 16.98 -6 18 C-6.99 18.495 -6.99 18.495 -8 19 C-9.13350534 21.01669827 -9.13350534 21.01669827 -10 23 C-10.66 23 -11.32 23 -12 23 C-12.495 24.485 -12.495 24.485 -13 26 C-13.99 25.67 -14.98 25.34 -16 25 C-16.495 22.03 -16.495 22.03 -17 19 C-17.99 19.33 -18.98 19.66 -20 20 C-20.33 19.01 -20.66 18.02 -21 17 C-23.99471095 14.98792858 -26.4440329 14.7528725 -30 14.8125 C-30.845625 14.81894531 -31.69125 14.82539062 -32.5625 14.83203125 C-34.86711178 14.99084264 -36.82577248 15.21863699 -39 16 C-39.72904086 17.64034193 -40.38655243 19.31301918 -41 21 C-42.32810215 22.67083819 -43.66172696 24.33729713 -45 26 C-49.65402009 33.92907126 -49.13183499 42.07916592 -49 51 C-53.26906792 46.73093208 -52.35911919 40.57752351 -52.38720703 34.91333008 C-52.25570508 27.55143708 -50.62615841 22.72587776 -45.4375 17.39453125 C-39.66469893 12.24230629 -33.29707971 12.44230518 -25.97265625 12.5625 C-21.16689731 13.09174779 -18.88913909 14.37357398 -15.578125 17.78515625 C-14.07507593 19.23714663 -14.07507593 19.23714663 -12.08984375 18.75976562 C-9.68967983 17.88718267 -8.67568081 16.9521209 -6.984375 15.05859375 C-6.45585938 14.47529297 -5.92734375 13.89199219 -5.3828125 13.29101562 C-4.84398437 12.67935547 -4.30515625 12.06769531 -3.75 11.4375 C-2.91855469 10.51420898 -2.91855469 10.51420898 -2.0703125 9.57226562 C-0.70593455 8.05498325 0.64805855 6.52837406 2 5 C1.34 3.35 0.68 1.7 0 0 Z " fill="#D32008" transform="translate(94,25)"/>
<path d="M0 0 C0.33 0 0.66 0 1 0 C1.3125 2.25 1.3125 2.25 1 5 C-1.25 7.0625 -1.25 7.0625 -4 9 C-4.639375 9.721875 -5.27875 10.44375 -5.9375 11.1875 C-8.55091789 13.48413997 -10.58920124 13.68992739 -14 14 C-14 14.66 -14 15.32 -14 16 C-21.53148945 19.04294537 -27.9929447 19.36909992 -36.0625 19.1875 C-37.79016602 19.16719727 -37.79016602 19.16719727 -39.55273438 19.14648438 C-42.36898972 19.11142725 -45.18423765 19.06228856 -48 19 C-48 18.34 -48 17.68 -48 17 C-48.99580078 16.92652344 -48.99580078 16.92652344 -50.01171875 16.8515625 C-61.0861244 15.9138756 -61.0861244 15.9138756 -65 12 C-64.67 11.01 -64.34 10.02 -64 9 C-62.88625 9.598125 -61.7725 10.19625 -60.625 10.8125 C-52.17858674 14.99098002 -44.32566264 16.49276093 -34.9375 16.375 C-33.5443457 16.39240234 -33.5443457 16.39240234 -32.12304688 16.41015625 C-20.69888277 16.36205451 -9.30740165 12.04779535 -1 4 C-0.13034494 1.87053397 -0.13034494 1.87053397 0 0 Z " fill="#D73000" transform="translate(98,94)"/>
<path d="M0 0 C0.87720703 -0.01224609 1.75441406 -0.02449219 2.65820312 -0.03710938 C9.88520637 -0.05332554 15.5135889 1.35614377 22.1875 4.1875 C21.5275 4.5175 20.8675 4.8475 20.1875 5.1875 C19.44967285 4.88650391 18.7118457 4.58550781 17.95166016 4.27539062 C12.74103138 2.22464324 7.09808186 2.73339083 1.5625 2.6875 C0.34175781 2.64625 -0.87898438 2.605 -2.13671875 2.5625 C-12.70166449 2.47210474 -19.98763211 5.33387937 -27.66015625 12.6171875 C-28.74539845 13.75275603 -29.81741637 14.90112866 -30.875 16.0625 C-32.8211021 18.14680027 -34.78755647 20.17746769 -36.8125 22.1875 C-37.4725 22.1875 -38.1325 22.1875 -38.8125 22.1875 C-35.77333041 13.34909865 -28.60278388 8.18394349 -20.5 4.1875 C-13.25591829 0.7447681 -7.91484424 0.00573955 0 0 Z " fill="#EFC957" transform="translate(61.8125,12.8125)"/>
<path d="M0 0 C1.32 0.66 2.64 1.32 4 2 C3.66951441 7.28776943 0.51647805 11.24100622 -3 15 C-3.66 15 -4.32 15 -5 15 C-5.33 15.99 -5.66 16.98 -6 18 C-6.99 18.495 -6.99 18.495 -8 19 C-9.13350534 21.01669827 -9.13350534 21.01669827 -10 23 C-10.66 23 -11.32 23 -12 23 C-12.33 23.99 -12.66 24.98 -13 26 C-13.99 25.67 -14.98 25.34 -16 25 C-16.33 23.02 -16.66 21.04 -17 19 C-17.99 19.33 -18.98 19.66 -20 20 C-20.33 19.01 -20.66 18.02 -21 17 C-26.91289786 13.05369788 -35.36228832 14.84561536 -42 16 C-41 14 -41 14 -38 13 C-22.63327716 11.64964282 -22.63327716 11.64964282 -17.25 16.0625 C-16.69828125 16.63097656 -16.1465625 17.19945313 -15.578125 17.78515625 C-14.07507593 19.23714663 -14.07507593 19.23714663 -12.08984375 18.75976562 C-9.68967983 17.88718267 -8.67568081 16.9521209 -6.984375 15.05859375 C-6.45585938 14.47529297 -5.92734375 13.89199219 -5.3828125 13.29101562 C-4.84398437 12.67935547 -4.30515625 12.06769531 -3.75 11.4375 C-2.91855469 10.51420898 -2.91855469 10.51420898 -2.0703125 9.57226562 C-0.70593455 8.05498325 0.64805855 6.52837406 2 5 C1.34 3.35 0.68 1.7 0 0 Z " fill="#DC3C09" transform="translate(94,25)"/>
<path d="M0 0 C0.66 0.33 1.32 0.66 2 1 C-10.37976934 9.06714477 -21.73331622 10.79539194 -36.4375 8.25 C-41.03389108 7.18751764 -44.88706118 5.28496601 -49 3 C-46.2780754 1.6390377 -44.8168043 2.29633752 -41.875 2.9375 C-40.96492188 3.13214844 -40.05484375 3.32679687 -39.1171875 3.52734375 C-38.41851562 3.68332031 -37.71984375 3.83929688 -37 4 C-37 4.66 -37 5.32 -37 6 C-32.97863607 5.88940687 -28.95814845 5.7589472 -24.9375 5.625 C-23.80376953 5.5940625 -22.67003906 5.563125 -21.50195312 5.53125 C-15.64530539 5.3263527 -10.54871007 4.89317986 -5 3 C-4.34 3 -3.68 3 -3 3 C-3 2.34 -3 1.68 -3 1 C-2.01 0.67 -1.02 0.34 0 0 Z " fill="#300000" transform="translate(87,107)"/>
<path d="M0 0 C4.51315789 2.02631579 4.51315789 2.02631579 6 5 C6.66 5 7.32 5 8 5 C8.33 6.65 8.66 8.3 9 10 C8.46890625 9.65066406 7.9378125 9.30132812 7.390625 8.94140625 C6.68421875 8.48636719 5.9778125 8.03132813 5.25 7.5625 C4.55390625 7.11003906 3.8578125 6.65757813 3.140625 6.19140625 C-1.15484906 3.80067708 -5.1267635 3.74351387 -10 4 C-12.83378132 4.8974827 -12.83378132 4.8974827 -15 6 C-14.75 4.125 -14.75 4.125 -14 2 C-9.62995417 -0.7987934 -5.01411621 -0.5436016 0 0 Z " fill="#4B0000" transform="translate(69,39)"/>
<path d="M0 0 C0.66 0.33 1.32 0.66 2 1 C-6.13426486 7.38315506 -13.02941949 7.76560282 -23.125 7.375 C-24.47650236 7.34482964 -25.82807042 7.3174664 -27.1796875 7.29296875 C-30.45483775 7.22278696 -33.72654074 7.12450255 -37 7 C-37 6.67 -37 6.34 -37 6 C-35.91900024 5.970271 -35.91900024 5.970271 -34.81616211 5.93994141 C-31.52293328 5.8441634 -28.23029332 5.73469883 -24.9375 5.625 C-23.80376953 5.5940625 -22.67003906 5.563125 -21.50195312 5.53125 C-15.64530539 5.3263527 -10.54871007 4.89317986 -5 3 C-4.34 3 -3.68 3 -3 3 C-3 2.34 -3 1.68 -3 1 C-2.01 0.67 -1.02 0.34 0 0 Z " fill="#640000" transform="translate(87,107)"/>
<path d="M0 0 C0.33 0 0.66 0 1 0 C1 8.91 1 17.82 1 27 C-2.94098416 23.05901584 -2.18337967 18.27471973 -2.1875 13.0625 C-2.19974609 12.25103516 -2.21199219 11.43957031 -2.22460938 10.60351562 C-2.22654297 9.81783203 -2.22847656 9.03214844 -2.23046875 8.22265625 C-2.23457764 7.50859619 -2.23868652 6.79453613 -2.24291992 6.05883789 C-1.96326283 3.68863868 -1.17114859 2.06292733 0 0 Z " fill="#EF4C08" transform="translate(44,49)"/>
<path d="M0 0 C0.80050781 0.38091797 0.80050781 0.38091797 1.6171875 0.76953125 C7.29022691 3.39012212 12.97881581 5.34071751 19 7 C19 7.33 19 7.66 19 8 C17.10353002 7.88506243 15.20781668 7.75760358 13.3125 7.625 C12.25675781 7.55539063 11.20101562 7.48578125 10.11328125 7.4140625 C5.92279939 6.85673367 3.0110763 6.0110763 0 3 C0 2.01 0 1.02 0 0 Z " fill="#D8370E" transform="translate(33,103)"/>
<path d="M0 0 C0.33 0 0.66 0 1 0 C1.3125 2.25 1.3125 2.25 1 5 C-1.25 7.0625 -1.25 7.0625 -4 9 C-4.8971875 9.99580078 -4.8971875 9.99580078 -5.8125 11.01171875 C-8.40710854 13.37003259 -10.36227723 13.94339934 -13.75 14.75 C-14.73484375 14.99234375 -15.7196875 15.2346875 -16.734375 15.484375 C-17.48203125 15.65453125 -18.2296875 15.8246875 -19 16 C-17.17975807 12.35951614 -12.64348682 11.31011326 -9.078125 9.6328125 C-3.51482306 6.75301363 -3.51482306 6.75301363 -0.1875 1.75 C-0.0946875 0.88375 -0.0946875 0.88375 0 0 Z " fill="#EE6517" transform="translate(98,94)"/>
<path d="M0 0 C0.70769531 -0.02900391 1.41539063 -0.05800781 2.14453125 -0.08789062 C5.9669652 -0.13415845 7.92527298 0.17839757 11.1328125 2.33203125 C11.79023437 2.98558594 12.44765625 3.63914063 13.125 4.3125 C6.25 3.4375 6.25 3.4375 5.125 2.3125 C-0.61616691 1.93855426 -6.21945544 2.32892703 -11.875 3.3125 C-9.73523624 -0.96702752 -4.22368716 0.05707685 0 0 Z " fill="#E93B0F" transform="translate(63.875,37.6875)"/>
<path d="M0 0 C5.94 0.99 5.94 0.99 12 2 C12 2.66 12 3.32 12 4 C7.01137151 4.29344873 4.03770942 4.05887078 0 1 C0 0.67 0 0.34 0 0 Z " fill="#5F0000" transform="translate(38,109)"/>
<path d="M0 0 C0.86625 0.3403125 0.86625 0.3403125 1.75 0.6875 C0.76 0.6875 -0.23 0.6875 -1.25 0.6875 C-1.518125 1.47125 -1.78625 2.255 -2.0625 3.0625 C-3.25 5.6875 -3.25 5.6875 -6.25 7.6875 C-6.5 5.375 -6.5 5.375 -6.25 2.6875 C-4.11319077 0.39806154 -3.15626895 -0.43837069 0 0 Z " fill="#B60000" transform="translate(56.25,40.3125)"/>
<path d="M0 0 C0.75 1.5625 0.75 1.5625 1 4 C-0.13084437 6.50286409 -1.52139516 8.67007722 -3 11 C-3.75 9.4375 -3.75 9.4375 -4 7 C-2.86915563 4.49713591 -1.47860484 2.32992278 0 0 Z " fill="#EEAA31" transform="translate(22,35)"/>
<path d="M0 0 C3 1 3 1 4 3 C4.66 3 5.32 3 6 3 C6.33 4.65 6.66 6.3 7 8 C3.83282717 6.41641358 2.26731682 5.54736301 0.6875 2.3125 C0.460625 1.549375 0.23375 0.78625 0 0 Z " fill="#9D0000" transform="translate(71,41)"/>
</svg>
