<?xml version="1.0" encoding="UTF-8"?>
<svg version="1.1" xmlns="http://www.w3.org/2000/svg" width="100" height="129">
<path d="M0 0 C1.38063879 -0.0114382 2.76123627 -0.03175859 4.14160156 -0.06152344 C16.54440013 -0.3281702 28.5640655 0.98773873 38.40478516 9.23266602 C41.44805643 14.75563981 40.76130216 21.28881768 39.41625977 27.33300781 C38.50757946 30.32184727 37.48962878 33.24089347 36.40478516 36.17016602 C36.06511719 37.16274414 35.72544922 38.15532227 35.37548828 39.17797852 C33.09918439 45.54311987 30.81057712 51.14247067 24.71728516 54.67016602 C20.0061324 55.79186905 16.43595037 55.95328776 12.02978516 53.79516602 C6.21042301 51.030969 -1.98849931 50.96004864 -8.04052734 53.02172852 C-11.34881053 55.06654677 -13.4826972 57.7326219 -14.90771484 61.29516602 C-15.41800452 64.40793305 -15.5159433 67.19207453 -14.90771484 70.29516602 C-12.35221317 73.63151543 -9.82454294 75.81822253 -5.90771484 77.29516602 C-3.0741539 77.4882343 -0.36255648 77.57433964 2.46728516 77.54516602 C3.20978516 77.55290039 3.95228516 77.56063477 4.71728516 77.56860352 C9.27470223 77.55249957 12.76226832 76.82591845 17.09228516 75.29516602 C22.19173548 74.99199748 26.10531753 75.72093031 30.52978516 78.29516602 C33.75160424 82.06705177 34.861093 85.56526232 36.09228516 90.29516602 C36.42228516 91.28516602 36.75228516 92.27516602 37.09228516 93.29516602 C38.67811151 102.97071415 35.01710974 114.6227918 29.48681641 122.61547852 C21.65115279 130.0230655 9.8418589 129.81607422 -0.22021484 129.79516602 C-1.44933594 129.82352539 -2.67845703 129.85188477 -3.94482422 129.88110352 C-17.55516413 129.90983247 -28.74199474 125.33312655 -38.90771484 116.29516602 C-45.14555352 109.87322446 -49.59902648 102.58423663 -52.90771484 94.29516602 C-53.21660645 93.5260791 -53.52549805 92.75699219 -53.84375 91.96459961 C-60.78760634 73.97634621 -64.4204956 51.71878474 -56.90771484 33.29516602 C-55.69966452 30.79000837 -54.32787601 28.4806622 -52.78271484 26.17016602 C-52.38947021 25.57397461 -51.99622559 24.9777832 -51.59106445 24.36352539 C-43.1680733 12.0350701 -30.09832324 4.20321319 -15.67456055 0.76245117 C-10.49689981 -0.11199007 -5.2389982 0.03008096 0 0 Z " fill="#F6F8FE" transform="translate(59.90771484375,-0.295166015625)"/>
<path d="M0 0 C1.26263672 -0.00322266 2.52527344 -0.00644531 3.82617188 -0.00976562 C13.1322936 0.0436899 22.0584671 0.38160329 29.95703125 5.7734375 C31.4375 7.3125 31.4375 7.3125 32.1875 11.0625 C31.6228895 16.47249517 29.45667241 21.83036817 26.0234375 26.05078125 C23.73860328 27.86851882 21.56537203 27.71017645 18.734375 27.6171875 C16.22311519 27.2840612 14.02611274 26.61541987 11.625 25.8125 C2.83903074 22.98699687 -6.13157889 23.49988209 -14.5625 27.3125 C-20.15879271 30.75389839 -23.3234939 35.17189249 -25.5625 41.3125 C-26.11557978 44.45983575 -26.18415503 47.49730798 -26.125 50.6875 C-26.11404297 51.52240967 -26.10308594 52.35731934 -26.09179688 53.2175293 C-25.82170339 60.91594394 -24.30549881 66.78796416 -18.5546875 72.203125 C-14.05336309 75.75767638 -10.54622852 77.43762802 -4.74609375 77.4453125 C-3.81732422 77.44660156 -2.88855469 77.44789062 -1.93164062 77.44921875 C-0.96419922 77.44535156 0.00324219 77.44148438 1 77.4375 C2.45696289 77.44330078 2.45696289 77.44330078 3.94335938 77.44921875 C4.87083984 77.44792969 5.79832031 77.44664063 6.75390625 77.4453125 C7.60412354 77.44418457 8.45434082 77.44305664 9.33032227 77.44189453 C11.49476615 77.44701375 11.49476615 77.44701375 13.4375 76.3125 C17.75217092 75.80440169 21.26535894 75.52130478 24.9375 78 C28.07799628 82.84159843 28.4354614 89.68180036 27.4375 95.3125 C22.66229903 100.981611 16.31768379 101.97913291 9.17529297 102.59277344 C5.73633513 102.71347363 2.31576162 102.72219676 -1.125 102.6875 C-2.8565332 102.70490234 -2.8565332 102.70490234 -4.62304688 102.72265625 C-18.30222973 102.67610203 -30.32054529 98.61085799 -40.375 89.0625 C-51.02592171 77.72565131 -54.72567523 65.32195298 -54.8125 50.0625 C-54.8434375 48.72638672 -54.8434375 48.72638672 -54.875 47.36328125 C-54.94972916 34.49118326 -50.19202141 23.98218774 -41.4375 14.625 C-29.23234381 3.03522984 -16.37981901 -0.2096751 0 0 Z " fill="#425EF9" transform="translate(61.5625,6.6875)"/>
<path d="M0 0 C1.37901489 0.00193359 1.37901489 0.00193359 2.78588867 0.00390625 C9.82061645 0.1030131 16.07139604 0.98950732 22.75 3.3125 C23.74030231 7.43298864 23.62125129 9.45992381 21.75 13.3125 C20.33318366 13.00067931 18.91655349 12.68801263 17.5 12.375 C16.71109375 12.20097656 15.9221875 12.02695312 15.109375 11.84765625 C13.70463868 11.52903228 12.30553321 11.17925514 10.92578125 10.765625 C0.03602379 8.49774014 -10.95493552 10.07584743 -20.5234375 15.6328125 C-27.3244211 20.25950395 -31.10972918 26.43026915 -33.25 34.3125 C-33.46284674 37.10991424 -33.58372194 39.76963032 -33.5625 42.5625 C-33.55831055 43.31249268 -33.55412109 44.06248535 -33.54980469 44.83520508 C-33.3447142 54.94463893 -30.68302464 62.28041798 -23.9375 69.9375 C-16.87221102 76.18124375 -9.38714402 78.68006235 0 78.5625 C0.74564209 78.55863281 1.49128418 78.55476563 2.25952148 78.55078125 C7.91774862 78.4624577 13.27885121 77.81807411 18.75 76.3125 C20.36989062 79.85601073 20.85414268 82.43969419 20.75 86.3125 C13.52298625 88.04108612 6.67003369 88.64970051 -0.75 88.625 C-1.71808594 88.64111328 -2.68617187 88.65722656 -3.68359375 88.67382812 C-15.45422756 88.68172788 -25.59235694 85.18894852 -34.48046875 77.34375 C-39.89939523 71.73165354 -42.70593807 65.61928253 -45.25 58.3125 C-45.61609375 57.35859375 -45.9821875 56.4046875 -46.359375 55.421875 C-49.34864746 44.98564307 -47.59726051 33.0837419 -43.25 23.3125 C-41.52368041 20.33745933 -39.56598681 17.84718775 -37.25 15.3125 C-36.74855469 14.70921875 -36.24710938 14.1059375 -35.73046875 13.484375 C-26.51092975 3.16566955 -13.31542093 -0.07745042 0 0 Z " fill="#FDE753" transform="translate(61.25,13.6875)"/>
<path d="M0 0 C1.26263672 -0.00322266 2.52527344 -0.00644531 3.82617188 -0.00976562 C13.14308852 0.04375191 22.04540549 0.39264596 29.9609375 5.76953125 C31.4375 7.3125 31.4375 7.3125 32.125 11.125 C31.68468583 15.48660261 30.15501797 19.30495807 28.4375 23.3125 C28.1075 23.3125 27.7775 23.3125 27.4375 23.3125 C27.4375 19.3525 27.4375 15.3925 27.4375 11.3125 C26.4475 11.3125 25.4575 11.3125 24.4375 11.3125 C24.4375 10.6525 24.4375 9.9925 24.4375 9.3125 C3.13168162 7.30724651 -17.04731581 5.52974703 -34.4921875 19.90234375 C-41.0385525 25.87274101 -45.58769615 34.45571072 -46.5625 43.3125 C-47.38560992 52.56245391 -47.38560992 52.56245391 -45.5625 61.3125 C-45.45874207 62.8112257 -45.37899295 64.31165919 -45.3125 65.8125 C-44.30298395 76.14519372 -38.35971059 84.6798799 -30.5625 91.3125 C-22.89048737 96.19331187 -15.26499809 99.49582933 -6.125 99.4375 C-5.02490601 99.43459961 -5.02490601 99.43459961 -3.90258789 99.43164062 C5.22278509 99.36286361 14.32918009 98.83997251 23.4375 98.3125 C16.08813846 103.21207436 7.58514163 102.6483625 -0.9375 102.625 C-2.68933594 102.64916992 -2.68933594 102.64916992 -4.4765625 102.67382812 C-18.23690105 102.68154132 -30.25300552 98.67499812 -40.375 89.0625 C-51.02592171 77.72565131 -54.72567523 65.32195298 -54.8125 50.0625 C-54.8434375 48.72638672 -54.8434375 48.72638672 -54.875 47.36328125 C-54.94972916 34.49118326 -50.19202141 23.98218774 -41.4375 14.625 C-29.23234381 3.03522984 -16.37981901 -0.2096751 0 0 Z " fill="#415DFA" transform="translate(61.5625,6.6875)"/>
<path d="M0 0 C0.66 0 1.32 0 2 0 C2.4846875 0.9178125 2.969375 1.835625 3.46875 2.78125 C11.45290099 17.54971487 21.67126781 26.86435036 38 32 C42.13050335 32.80681598 46.04069674 33.12831715 50.24609375 33.1328125 C51.99696289 33.13474609 51.99696289 33.13474609 53.78320312 33.13671875 C54.98912109 33.13285156 56.19503906 33.12898438 57.4375 33.125 C58.63955078 33.12886719 59.84160156 33.13273437 61.08007812 33.13671875 C72.5111735 33.24908913 72.5111735 33.24908913 83.1875 29.625 C84.00605469 29.20476562 84.82460937 28.78453125 85.66796875 28.3515625 C87.92355822 27.04430294 89.95234677 25.60987909 92 24 C91.25976138 31.03226687 89.10886429 37.64008044 84.375 42.9375 C75.6901446 48.24491163 66.6559458 48.52071365 56.6875 48.5 C55.45837891 48.52835938 54.22925781 48.55671875 52.96289062 48.5859375 C39.35255072 48.61466645 28.16572011 44.03796053 18 35 C8.38120318 25.09731508 3.59964382 13.12811277 0 0 Z " fill="#2E54FF" transform="translate(3,81)"/>
<path d="M0 0 C1.39344987 4.18034962 -0.1769741 7.00449899 -1.6875 10.9375 C-1.94466797 11.65357422 -2.20183594 12.36964844 -2.46679688 13.10742188 C-4.37850724 18.17556804 -6.39601186 21.59243884 -11.3125 24.25 C-16.01894339 25.56342606 -19.62971443 25.67116028 -24.0625 23.5 C-29.88186215 20.73580298 -38.08078446 20.66488262 -44.1328125 22.7265625 C-48.36999188 25.34552262 -50.53251911 29.08757818 -51.6875 33.8125 C-51.790625 34.534375 -51.89375 35.25625 -52 36 C-52.66 36 -53.32 36 -54 36 C-56.04628787 29.8611364 -56.10571965 22.49983235 -53.375 16.5625 C-50.22551971 11.2094964 -45.88939478 7.98058165 -40 6 C-33.55850139 5.24849183 -28.26634246 6.05903778 -22.2578125 8.3203125 C-16.95781396 9.91581379 -11.82653601 9.60884534 -6.625 7.875 C-3.51305077 5.65217912 -1.9017109 3.29142271 0 0 Z " fill="#4C9FFF" transform="translate(96,30)"/>
<path d="M0 0 C2.97 0.33 5.94 0.66 9 1 C9 1.66 9 2.32 9 3 C9.99 3 10.98 3 12 3 C13.13536205 8.17220489 13.5660818 13.14420377 10.9375 17.9375 C7.03198828 20.07923223 2.77110291 19.51021839 -1.359375 18.3203125 C-2.57367188 17.91425781 -2.57367188 17.91425781 -3.8125 17.5 C-12.48546261 14.71083898 -21.71376341 15.04301181 -30 19 C-32.21414254 20.66948715 -34.18973672 22.44156657 -36.1796875 24.37109375 C-38 26 -38 26 -41.375 27.5625 C-44.22892703 28.7747283 -44.22892703 28.7747283 -45.1484375 31.67578125 C-47.50829971 40.88790391 -46.55053378 51.88077308 -44 61 C-42.25055924 64.04753335 -42.25055924 64.04753335 -40 66 C-38.98198643 66.98165594 -37.9753197 67.97591432 -37 69 C-37 69.66 -37 70.32 -37 71 C-42.83979318 68.57831471 -45.43773692 63.29875625 -48.05078125 57.78125 C-51.34388806 48.66667949 -51.72361264 36.60178825 -48.4375 27.4375 C-44.42113236 19.18007282 -38.45780488 13.5423923 -30 10 C-17.65671942 5.85639281 -5.89354158 7.43809364 6 12 C6.33 9.03 6.66 6.06 7 3 C4.69 2.34 2.38 1.68 0 1 C0 0.67 0 0.34 0 0 Z " fill="#314AD5" transform="translate(77,15)"/>
<path d="M0 0 C1.899623 2.8494345 3.16230883 5.57197493 4.5625 8.6875 C9.65141481 18.86532961 17.39280441 24.25533853 28 28 C31.44472691 28.80821775 34.633224 29.12824944 38.16796875 29.1328125 C39.14443359 29.13410156 40.12089844 29.13539062 41.12695312 29.13671875 C42.64192383 29.13091797 42.64192383 29.13091797 44.1875 29.125 C45.6734668 29.13080078 45.6734668 29.13080078 47.18945312 29.13671875 C53.52930207 29.12840419 59.70180101 28.72738137 66 28 C65.505 23.545 65.505 23.545 65 19 C69 20 69 20 70.3125 21.625 C71.44076045 25.52262702 70.80650272 29.38699455 69 33 C65.97898922 33.49335055 63.04329988 33.85475095 60 34.125 C58.65035156 34.24693726 58.65035156 34.24693726 57.2734375 34.37133789 C41.09958896 35.73671824 27.17969252 36.55769017 13.8046875 25.65234375 C7.0074787 19.42892531 0.50746895 11.88663981 -0.3125 2.375 C-0.209375 1.59125 -0.10625 0.8075 0 0 Z " fill="#334DDF" transform="translate(16,72)"/>
<path d="M0 0 C0.66 0.99 1.32 1.98 2 3 C1.36736054 5.34278813 0.69448065 7.67479345 0 10 C-0.30716904 12.77537062 -0.33301591 15.52202046 -0.3125 18.3125 C-0.31048584 19.05508057 -0.30847168 19.79766113 -0.30639648 20.56274414 C-0.18617339 27.17357448 1.02879389 33.05758778 4 39 C6.97 39 9.94 39 13 39 C13.66 40.65 14.32 42.3 15 44 C12.69 44 10.38 44 8 44 C11.6633917 51.78470735 19.00011652 55.33125416 26.703125 58.23828125 C30.47990765 59.4907857 33.74547327 60.12728175 37.73828125 60.1328125 C39.09276367 60.13474609 39.09276367 60.13474609 40.47460938 60.13671875 C41.41111328 60.13285156 42.34761719 60.12898438 43.3125 60.125 C44.69985352 60.13080078 44.69985352 60.13080078 46.11523438 60.13671875 C51.18509574 60.12951212 56.00373221 59.86831688 61 59 C61 57.68 61 56.36 61 55 C54.07 55 47.14 55 40 55 C40 54.67 40 54.34 40 54 C40.55461914 53.94465088 41.10923828 53.88930176 41.68066406 53.83227539 C44.2040917 53.57871893 46.72703883 53.32065495 49.25 53.0625 C50.55904297 52.93198242 50.55904297 52.93198242 51.89453125 52.79882812 C53.16103516 52.66831055 53.16103516 52.66831055 54.453125 52.53515625 C55.22817383 52.456604 56.00322266 52.37805176 56.80175781 52.29711914 C58.92623038 52.00997086 60.93296525 51.56205228 63 51 C64.61989062 54.54351073 65.10414268 57.12719419 65 61 C57.77298625 62.72858612 50.92003369 63.33720051 43.5 63.3125 C42.53191406 63.32861328 41.56382813 63.34472656 40.56640625 63.36132812 C28.79577244 63.36922788 18.65764306 59.87644852 9.76953125 52.03125 C4.35060477 46.41915354 1.54406193 40.30678253 -1 33 C-1.36738281 32.04867187 -1.73476562 31.09734375 -2.11328125 30.1171875 C-4.8886461 20.36061856 -3.34697731 9.40341246 0 0 Z " fill="#EBCE5D" transform="translate(17,39)"/>
<path d="M0 0 C0.66 0 1.32 0 2 0 C1.67 1.98 1.34 3.96 1 6 C-0.37488287 6.02749766 -1.74993391 6.0466164 -3.125 6.0625 C-4.27355469 6.07990234 -4.27355469 6.07990234 -5.4453125 6.09765625 C-8 6 -8 6 -10.921875 5.5078125 C-19.42653308 4.10475977 -33.39040054 3.09287724 -40.7890625 8.24609375 C-42.27764269 9.73605538 -42.27764269 9.73605538 -44 12 C-44.66 12 -45.32 12 -46 12 C-46.66916705 13.33208021 -47.33511885 14.6657754 -48 16 C-48.42539062 16.83273438 -48.85078125 17.66546875 -49.2890625 18.5234375 C-54.57906057 29.81495386 -54.3439372 42.04402343 -51 54 C-49.25055924 57.04753335 -49.25055924 57.04753335 -47 59 C-45.98198643 59.98165594 -44.9753197 60.97591432 -44 62 C-44 62.66 -44 63.32 -44 64 C-49.83979318 61.57831471 -52.43773692 56.29875625 -55.05078125 50.78125 C-58.34388806 41.66667949 -58.72361264 29.60178825 -55.4375 20.4375 C-51.42113236 12.18007282 -45.45780488 6.5423923 -37 3 C-24.65671942 -1.14360719 -12.89354158 0.43809364 -1 5 C-0.67 3.35 -0.34 1.7 0 0 Z " fill="#323B73" transform="translate(84,22)"/>
<path d="M0 0 C7.16838863 0.14990927 12.46943762 1.25332198 18.7109375 4.84375 C22.92505222 6.97238132 27.07824078 7.12257625 31.73828125 7.09765625 C33.33833008 7.09282227 33.33833008 7.09282227 34.97070312 7.08789062 C36.07349609 7.07951172 37.17628906 7.07113281 38.3125 7.0625 C39.99569336 7.05573242 39.99569336 7.05573242 41.71289062 7.04882812 C44.4753151 7.03707313 47.23762998 7.02064077 50 7 C50.5625 8.9375 50.5625 8.9375 51 11 C47.47058556 14.52941444 37.34290218 13.22326402 32.6875 13.25 C31.80126953 13.270625 30.91503906 13.29125 30.00195312 13.3125 C21.47372472 13.36226355 13.82813944 11.54741651 6.5 7.0625 C5.6853125 6.57910156 4.870625 6.09570312 4.03125 5.59765625 C1.85675338 3.88733102 1.01161565 2.54553285 0 0 Z " fill="#FF9037" transform="translate(28,87)"/>
<path d="M0 0 C1.64548828 0.84884766 1.64548828 0.84884766 3.32421875 1.71484375 C4.77848273 2.45604926 6.23291893 3.19691695 7.6875 3.9375 C8.40873047 4.31068359 9.12996094 4.68386719 9.87304688 5.06835938 C10.57880859 5.42607422 11.28457031 5.78378906 12.01171875 6.15234375 C12.65584717 6.48226318 13.29997559 6.81218262 13.96362305 7.15209961 C17.97316857 8.82158188 21.86174872 9.12725353 26.16796875 9.1328125 C27.14443359 9.13410156 28.12089844 9.13539062 29.12695312 9.13671875 C30.64192383 9.13091797 30.64192383 9.13091797 32.1875 9.125 C33.6734668 9.13080078 33.6734668 9.13080078 35.18945312 9.13671875 C41.5186044 9.12841822 47.71671047 8.7599846 54 8 C53.505 4.535 53.505 4.535 53 1 C53.66 1 54.32 1 55 1 C56.4783226 3.95664519 56.06032783 6.74229737 56 10 C51.6991423 12.43880516 48.61869576 13.37705709 43.68359375 13.36328125 C42.50732422 13.36263672 41.33105469 13.36199219 40.11914062 13.36132812 C38.90419922 13.34521484 37.68925781 13.32910156 36.4375 13.3125 C34.60928711 13.31733398 34.60928711 13.31733398 32.74414062 13.32226562 C23.00878411 13.26352239 23.00878411 13.26352239 18 11 C16.61091217 10.63958802 15.2150487 10.30384034 13.8125 10 C10 9 10 9 8 7 C7.38125 6.87625 6.7625 6.7525 6.125 6.625 C3.24490483 5.77791319 1.91803673 4.26054328 0 2 C0 1.34 0 0.68 0 0 Z " fill="#273AA1" transform="translate(28,92)"/>
<path d="M0 0 C0.66 0.99 1.32 1.98 2 3 C1.36736054 5.34278813 0.69448065 7.67479345 0 10 C-0.30716904 12.77537062 -0.33301591 15.52202046 -0.3125 18.3125 C-0.31048584 19.05508057 -0.30847168 19.79766113 -0.30639648 20.56274414 C-0.18617339 27.17357448 1.02879389 33.05758778 4 39 C6.97 39 9.94 39 13 39 C13.66 40.65 14.32 42.3 15 44 C12.69 44 10.38 44 8 44 C7.67 45.32 7.34 46.64 7 48 C2.85830896 43.56247389 1.01118755 38.61949462 -1 33 C-1.36222656 32.06414062 -1.72445313 31.12828125 -2.09765625 30.1640625 C-4.88567413 20.38789591 -3.35500901 9.42597769 0 0 Z " fill="#EED868" transform="translate(17,39)"/>
<path d="M0 0 C5 5 5 5 7.3125 7.5625 C16.51093488 15.90526652 28.15641922 16.36789878 40 17 C40 17.33 40 17.66 40 18 C18.56203457 18.6714908 18.56203457 18.6714908 10.62109375 13.4296875 C7.52557341 11.74122186 5.31620708 11.57242537 1.8125 11.4375 C-3.79048843 11.20951157 -3.79048843 11.20951157 -6 9 C-6 8.01 -6 7.02 -6 6 C-3.69 6 -1.38 6 1 6 C0.67 4.02 0.34 2.04 0 0 Z " fill="#FAD758" transform="translate(31,77)"/>
<path d="M0 0 C0 0.66 0 1.32 0 2 C5.61 2 11.22 2 17 2 C16.01 3.32 15.02 4.64 14 6 C9.20435946 6.58893831 5.74328848 6.01617801 1.1875 4.5 C-8.60254862 1.35159233 -18.09451382 2.67120153 -27.28515625 7.1015625 C-27.85105469 7.39804687 -28.41695312 7.69453125 -29 8 C-27.60834843 4.53180029 -26.36301441 3.23066832 -22.9375 1.75 C-15.56523017 -1.0295303 -7.74374687 -0.32340474 0 0 Z " fill="#3855F4" transform="translate(72,28)"/>
<path d="M0 0 C-1.96068245 1.48907063 -3.92286894 2.94801704 -5.96484375 4.32421875 C-12.93506348 9.14126169 -16.79963442 14.79508124 -19 23 C-19.24855574 25.81907151 -19.235007 28.6095835 -19.1875 31.4375 C-19.18685547 32.16259766 -19.18621094 32.88769531 -19.18554688 33.63476562 C-19.14879149 38.18018143 -18.73858733 42.51529776 -18 47 C-18.66 47 -19.32 47 -20 47 C-23.32978461 36.66572824 -23.58635404 25.01439852 -19 15 C-15.53694627 8.63574491 -8.39689803 -2.79896601 0 0 Z " fill="#E9D258" transform="translate(47,25)"/>
<path d="M0 0 C1.8253125 0.0309375 1.8253125 0.0309375 3.6875 0.0625 C3.6875 0.3925 3.6875 0.7225 3.6875 1.0625 C2.78 1.124375 1.8725 1.18625 0.9375 1.25 C-10.93298183 2.95954201 -21.47137729 9.66806368 -29.453125 18.29296875 C-31.31466599 20.06456133 -32.96626631 21.05029741 -35.3125 22.0625 C-35.3125 23.0525 -35.3125 24.0425 -35.3125 25.0625 C-35.9725 25.0625 -36.6325 25.0625 -37.3125 25.0625 C-35.78621574 19.63571152 -32.12408283 16.03029524 -28.3125 12.0625 C-27.7865625 11.51078125 -27.260625 10.9590625 -26.71875 10.390625 C-19.77050864 3.7829837 -9.58724335 -0.16249565 0 0 Z " fill="#F2D95E" transform="translate(55.3125,13.9375)"/>
<path d="M0 0 C2.55859526 3.83789289 4.39595016 7.92547586 6.3671875 12.08984375 C7.96860395 14.94404293 9.66974532 16.74287047 12 19 C12.33 19.99 12.66 20.98 13 22 C13.99 22.66 14.98 23.32 16 24 C16 24.66 16 25.32 16 26 C16.763125 26.12375 17.52625 26.2475 18.3125 26.375 C21 27 21 27 24 29 C25.94603274 29.59070014 25.94603274 29.59070014 28 30 C31.02555412 30.64178421 32.30491252 31.20327502 35 33 C24.6393547 32.96060591 17.69553415 29.69520063 10.1875 22.625 C5.06194777 17.16096791 0.16409682 10.34856577 -0.125 2.6875 C-0.08375 1.800625 -0.0425 0.91375 0 0 Z " fill="#344DD8" transform="translate(16,72)"/>
<path d="M0 0 C0.33 0 0.66 0 1 0 C1.04254356 1.99954746 1.04080783 4.00041636 1 6 C0.67 6.33 0.34 6.66 0 7 C-0.50842656 15.8485776 -0.832717 23.85547638 3 32 C3 33.32 3 34.64 3 36 C3.66 36 4.32 36 5 36 C5.33 36.99 5.66 37.98 6 39 C2.59051601 37.58917904 0.97697961 36.10514732 -1 33 C-3.60407071 24.00411936 -5.2527155 11.42876384 -1.5 2.625 C-1.005 1.75875 -0.51 0.8925 0 0 Z " fill="#344EE1" transform="translate(33,43)"/>
<path d="M0 0 C1.125 3.75 1.125 3.75 0 6 C-0.55373118 15.34904279 -1.23467076 26.88713332 3.9375 35.0625 C4.9584375 36.0215625 4.9584375 36.0215625 6 37 C7.01801357 37.98165594 8.0246803 38.97591432 9 40 C9 40.66 9 41.32 9 42 C5.51009773 40.57231271 3.93481823 38.9453649 1.875 35.8125 C1.37742187 35.07644531 0.87984375 34.34039062 0.3671875 33.58203125 C-3.13252502 26.97257417 -3.20835053 21.06616354 -2.75 13.8125 C-2.71003906 12.92369141 -2.67007812 12.03488281 -2.62890625 11.11914062 C-2.39207292 6.85934117 -2.12859634 3.77005923 0 0 Z " fill="#283CAD" transform="translate(31,44)"/>
<path d="M0 0 C0.99 0.33 1.98 0.66 3 1 C3.33 3.97 3.66 6.94 4 10 C1.69 10 -0.62 10 -3 10 C-2.01 9.34 -1.02 8.68 0 8 C0 6.68 0 5.36 0 4 C-6.93 4 -13.86 4 -21 4 C-21 3.67 -21 3.34 -21 3 C-20.43490723 2.94465088 -19.86981445 2.88930176 -19.28759766 2.83227539 C-16.73297668 2.57975628 -14.17900185 2.32120277 -11.625 2.0625 C-10.73554687 1.97548828 -9.84609375 1.88847656 -8.9296875 1.79882812 C-8.07890625 1.71181641 -7.228125 1.62480469 -6.3515625 1.53515625 C-5.56604004 1.456604 -4.78051758 1.37805176 -3.97119141 1.29711914 C-1.92865197 1.09303702 -1.92865197 1.09303702 0 0 Z " fill="#EDCF62" transform="translate(78,90)"/>
<path d="M0 0 C4.33311515 0.41664569 8.03536259 1.19789209 12 3 C11.51421457 6.12290635 11.0013988 8.99580359 10 12 C8.58194169 11.71517632 7.16559621 11.42181856 5.75 11.125 C4.96109375 10.96257813 4.1721875 10.80015625 3.359375 10.6328125 C1.03168856 10.00849925 -0.89031952 9.15161458 -3 8 C-1.35 7.67 0.3 7.34 2 7 C2 7.66 2 8.32 2 9 C2.61875 8.835 3.2375 8.67 3.875 8.5 C6 8 6 8 8 8 C8.66 6.68 9.32 5.36 10 4 C8.9275 3.87625 7.855 3.7525 6.75 3.625 C3.62136385 3.10356064 1.66519576 2.59911746 -1 1 C-0.67 0.67 -0.34 0.34 0 0 Z " fill="#EAD159" transform="translate(73,15)"/>
<path d="M0 0 C0 0.33 0 0.66 0 1 C-3.57350041 1.81898622 -6.85659479 2.11811958 -10.51953125 2.09765625 C-11.54111328 2.09443359 -12.56269531 2.09121094 -13.61523438 2.08789062 C-14.67033203 2.07951172 -15.72542969 2.07113281 -16.8125 2.0625 C-17.88693359 2.05798828 -18.96136719 2.05347656 -20.06835938 2.04882812 C-22.71229683 2.03707729 -25.35611952 2.02064787 -28 2 C-28.33 1.34 -28.66 0.68 -29 0 C-25.29215008 -0.19800942 -21.58371765 -0.38153245 -17.875 -0.5625 C-16.82828125 -0.61857422 -15.7815625 -0.67464844 -14.703125 -0.73242188 C-9.65148993 -0.97221468 -4.96874491 -1.16052 0 0 Z " fill="#F2CF53" transform="translate(77,100)"/>
<path d="M0 0 C1.55891056 3.9352986 0.36351583 6.35085666 -1.25 10.125 C-1.68828125 11.17945312 -2.1265625 12.23390625 -2.578125 13.3203125 C-4 16 -4 16 -7 18 C-6.302008 11.2992768 -5.17795509 4.68619399 0 0 Z " fill="#346DFF" transform="translate(94,105)"/>
<path d="M0 0 C-1.96068245 1.48907063 -3.92286894 2.94801704 -5.96484375 4.32421875 C-11.07416014 7.85521166 -14.10666755 11.51936064 -17 17 C-17.6640625 15.25 -17.6640625 15.25 -18 13 C-14.85707614 6.95046234 -7.39187315 -2.46395772 0 0 Z " fill="#F2D854" transform="translate(47,25)"/>
<path d="M0 0 C0.66 0 1.32 0 2 0 C1.67 1.98 1.34 3.96 1 6 C-0.37488287 6.02749766 -1.74993391 6.0466164 -3.125 6.0625 C-4.27355469 6.07990234 -4.27355469 6.07990234 -5.4453125 6.09765625 C-8 6 -8 6 -10.75 5.5 C-14.82152703 4.87361123 -18.76410934 4.89221053 -22.875 4.9375 C-24.050625 4.94426758 -24.050625 4.94426758 -25.25 4.95117188 C-27.16670014 4.96285907 -29.08336048 4.98079092 -31 5 C-30.67 4.34 -30.34 3.68 -30 3 C-20.13325025 2.80461882 -10.65653116 2.61777205 -1 5 C-0.67 3.35 -0.34 1.7 0 0 Z " fill="#2A3A95" transform="translate(84,22)"/>
<path d="M0 0 C11.70615034 0.41002278 11.70615034 0.41002278 16 5 C13.03 5 10.06 5 7 5 C6.67 5.66 6.34 6.32 6 7 C3.95880212 5.38405168 1.95927063 3.7143618 0 2 C0 1.34 0 0.68 0 0 Z " fill="#FEAE46" transform="translate(28,87)"/>
<path d="M0 0 C0.8971875 0.309375 0.8971875 0.309375 1.8125 0.625 C-0.99377778 5.37408547 -3.43841453 7.81872222 -8.1875 10.625 C-8.9375 8.9375 -8.9375 8.9375 -9.1875 6.625 C-4.28151709 -0.73397436 -4.28151709 -0.73397436 0 0 Z " fill="#3C57ED" transform="translate(43.1875,32.375)"/>
<path d="M0 0 C4.00132691 0.09709478 7.99818144 0.05827891 12 0 C10.72265625 1.97265625 10.72265625 1.97265625 9 4 C2.51742208 4.79610606 -2.89424361 3.10198171 -9 1 C-5.15219432 -1.56520378 -4.47393612 -0.78490107 0 0 Z " fill="#4F69FC" transform="translate(77,30)"/>
<path d="M0 0 C0.99 0 1.98 0 3 0 C3.92844389 4.33273814 3.92844389 7.66726186 3 12 C-2.45954909 13.8198497 -8.49017726 13.37745568 -14 12 C-14 11.67 -14 11.34 -14 11 C-9.38 10.67 -4.76 10.34 0 10 C0.185625 8.72125 0.37125 7.4425 0.5625 6.125 C0.66691406 5.40570312 0.77132812 4.68640625 0.87890625 3.9453125 C1.1684297 1.91859333 1.1684297 1.91859333 0 0 Z " fill="#344FE3" transform="translate(86,18)"/>
<path d="M0 0 C0 0.66 0 1.32 0 2 C-5.03681514 4.01792912 -9.354668 4.30521483 -14.6875 4.25 C-15.44611328 4.25773437 -16.20472656 4.26546875 -16.98632812 4.2734375 C-20.84350994 4.25981991 -22.72091189 4.18605874 -26 2 C-24.02966797 1.90912109 -24.02966797 1.90912109 -22.01953125 1.81640625 C-20.28384459 1.73196744 -18.54816802 1.64732112 -16.8125 1.5625 C-15.94818359 1.52318359 -15.08386719 1.48386719 -14.19335938 1.44335938 C-9.45214646 1.20720701 -4.67846715 0 0 0 Z " fill="#404771" transform="translate(79,100)"/>
<path d="M0 0 C6.7281627 -0.22262303 12.53991163 0.04978464 19 2 C19 2.33 19 2.66 19 3 C14.71 3 10.42 3 6 3 C5.67 3.66 5.34 4.32 5 5 C2.5 3.625 2.5 3.625 0 2 C0 1.34 0 0.68 0 0 Z " fill="#FF9F3F" transform="translate(35,92)"/>
<path d="M0 0 C1.45947705 0.06006078 2.91779272 0.1488689 4.375 0.25 C5.59316406 0.31960938 5.59316406 0.31960938 6.8359375 0.390625 C9 1 9 1 10.30859375 2.78515625 C11.45053574 6.44324162 10.67578961 9.25243943 10 13 C9 14 9 14 6.93359375 14.09765625 C6.10988281 14.08605469 5.28617187 14.07445312 4.4375 14.0625 C3.61121094 14.05347656 2.78492187 14.04445313 1.93359375 14.03515625 C1.29550781 14.02355469 0.65742187 14.01195312 0 14 C0 13.67 0 13.34 0 13 C2.64 13 5.28 13 8 13 C7.67 9.7 7.34 6.4 7 3 C4.69 2.34 2.38 1.68 0 1 C0 0.67 0 0.34 0 0 Z " fill="#3E4FB5" transform="translate(77,15)"/>
<path d="M0 0 C2.32974342 2.11914515 3.61190255 4.00229165 4.875 6.875 C6.66814677 10.65589862 8.94792578 13.11748546 12 16 C12 16.66 12 17.32 12 18 C6.82258086 15.8819649 4.62790486 11.74568701 2 7 C1.0927586 4.6463077 0.52690574 2.47645695 0 0 Z " fill="#3D4A9F" transform="translate(28,68)"/>
<path d="M0 0 C7.92 3.96 7.92 3.96 16 8 C16 8.66 16 9.32 16 10 C10.25 9.25 10.25 9.25 8 7 C7.38125 6.87625 6.7625 6.7525 6.125 6.625 C3.24490483 5.77791319 1.91803673 4.26054328 0 2 C0 1.34 0 0.68 0 0 Z " fill="#3143AA" transform="translate(28,92)"/>
<path d="M0 0 C1.98260599 0.42164019 3.96107245 0.86278778 5.9375 1.3125 C7.03964844 1.55613281 8.14179687 1.79976563 9.27734375 2.05078125 C10.62505859 2.52064453 10.62505859 2.52064453 12 3 C12.33 3.99 12.66 4.98 13 6 C7.71862571 5.48474397 4.42778844 3.74522883 0 1 C0 0.67 0 0.34 0 0 Z " fill="#4B5ED0" transform="translate(40,86)"/>
<path d="M0 0 C0 0.33 0 0.66 0 1 C-1.010625 1.103125 -2.02125 1.20625 -3.0625 1.3125 C-7.04433253 1.84137666 -7.04433253 1.84137666 -10.625 3.625 C-14.13138895 5.05352883 -15.48291004 5.17236332 -19 4 C-13.06147771 0.04098514 -6.91895619 -0.24710558 0 0 Z " fill="#DBC876" transform="translate(59,14)"/>
<path d="M0 0 C0.33 0 0.66 0 1 0 C1.25 5.625 1.25 5.625 -1 9 C-1.45915507 11.96842658 -1.45915507 11.96842658 -1.625 15.1875 C-1.69976563 16.27417969 -1.77453125 17.36085938 -1.8515625 18.48046875 C-1.90054687 19.31191406 -1.94953125 20.14335938 -2 21 C-2.33 21 -2.66 21 -3 21 C-3.55353075 6.21867882 -3.55353075 6.21867882 0 0 Z " fill="#314AD4" transform="translate(33,43)"/>
<path d="M0 0 C1.43655854 -0.08131463 2.8744483 -0.13933559 4.3125 -0.1875 C5.51326172 -0.23970703 5.51326172 -0.23970703 6.73828125 -0.29296875 C9 0 9 0 12 3 C8.37 3 4.74 3 1 3 C0.67 2.01 0.34 1.02 0 0 Z " fill="#FEC654" transform="translate(26,85)"/>
<path d="M0 0 C1.89668064 2.84502097 3.23263478 5.57299885 4.625 8.6875 C5.07101563 9.68136719 5.51703125 10.67523438 5.9765625 11.69921875 C6.31429688 12.45847656 6.65203125 13.21773437 7 14 C5.109375 13.69921875 5.109375 13.69921875 3 13 C0.51387936 8.47170884 -0.38279888 5.23158464 0 0 Z " fill="#4F61CE" transform="translate(16,72)"/>
<path d="M0 0 C1.81325551 0.11351517 3.62563357 0.24112961 5.4375 0.375 C6.95150391 0.47941406 6.95150391 0.47941406 8.49609375 0.5859375 C9.73552734 0.79089844 9.73552734 0.79089844 11 1 C11.33 1.66 11.66 2.32 12 3 C8.7 3.33 5.4 3.66 2 4 C1.34 2.68 0.68 1.36 0 0 Z " fill="#FEB94D" transform="translate(28,87)"/>
<path d="M0 0 C-4.5178206 2.34926671 -9.16892683 4.38964228 -14 6 C-13.0114653 3.30399627 -12.34022364 2.19441351 -9.8125 0.75 C-6.45769347 -0.14461507 -3.45702902 -0.13556977 0 0 Z " fill="#4963F7" transform="translate(57,30)"/>
<path d="M0 0 C0.66 0.33 1.32 0.66 2 1 C1.38125 1.20625 0.7625 1.4125 0.125 1.625 C-2.83771985 3.54205402 -2.97099183 5.70717385 -4 9 C-4.99 9.66 -5.98 10.32 -7 11 C-6.58485103 6.1565954 -4.53791301 4.18412171 -1 1 C-0.67 0.67 -0.34 0.34 0 0 Z " fill="#2D45C5" transform="translate(41,32)"/>
<path d="M0 0 C-1.1875 1.5 -1.1875 1.5 -3 3 C-5.6875 3.1875 -5.6875 3.1875 -8 3 C-8.33 2.01 -8.66 1.02 -9 0 C-5.62182575 -0.84454356 -3.32534757 -1.10844919 0 0 Z " fill="#3D5AF8" transform="translate(89,31)"/>
<path d="M0 0 C0 0.66 0 1.32 0 2 C-3.465 3.485 -3.465 3.485 -7 5 C-7.66 4.34 -8.32 3.68 -9 3 C-5.55930376 0.70620251 -4.27709699 0 0 0 Z " fill="#EAD168" transform="translate(42,18)"/>
<path d="M0 0 C1.85776765 3.13498292 2.20140476 5.37471432 2 9 C-0.31 9 -2.62 9 -5 9 C-2 7 -2 7 0 7 C0 4.69 0 2.38 0 0 Z " fill="#CAB764" transform="translate(80,91)"/>
<path d="M0 0 C1.46726798 3.81489674 0.43336419 6.29011622 -1 10 C-1.33 10 -1.66 10 -2 10 C-2 8.35 -2 6.7 -2 5 C-2.66 4.67 -3.32 4.34 -4 4 C-2.68 2.68 -1.36 1.36 0 0 Z " fill="#4F87FF" transform="translate(94,105)"/>
<path d="M0 0 C7.42857143 -0.28571429 7.42857143 -0.28571429 11 2 C6.58937864 3.0257259 4.07369424 3.03684712 0 1 C0 0.67 0 0.34 0 0 Z " fill="#E0C25A" transform="translate(39,98)"/>
<path d="M0 0 C2.33944736 0.28730055 4.6739143 0.61936779 7 1 C7 1.66 7 2.32 7 3 C7.99 3.33 8.98 3.66 10 4 C5.94393835 3.53199289 2.53411321 3.12046792 -1 1 C-0.67 0.67 -0.34 0.34 0 0 Z " fill="#F7D95A" transform="translate(73,15)"/>
<path d="M0 0 C-1.28650706 0.69710731 -2.57940665 1.38242876 -3.875 2.0625 C-4.95394531 2.63677734 -4.95394531 2.63677734 -6.0546875 3.22265625 C-6.69664063 3.47917969 -7.33859375 3.73570313 -8 4 C-8.66 3.67 -9.32 3.34 -10 3 C-8 0 -8 0 -6.125 -0.75 C-3.79860996 -1.02369295 -2.2373866 -0.61785571 0 0 Z " fill="#273CAC" transform="translate(53,28)"/>
<path d="M0 0 C1.70884005 1.62339805 3.37446717 3.29319053 5 5 C5 5.66 5 6.32 5 7 C3.68 6.67 2.36 6.34 1 6 C0.67 4.02 0.34 2.04 0 0 Z " fill="#E5CE60" transform="translate(31,77)"/>
</svg>
